<?xml version="1.0" encoding="UTF-8" standalone="no"?>
<!-- Created with Inkscape (http://www.inkscape.org/) -->

<svg
   width="32mm"
   height="32mm"
   viewBox="0 0 32 32"
   version="1.1"
   id="svg1"
   xmlns="http://www.w3.org/2000/svg"
   xmlns:svg="http://www.w3.org/2000/svg">
  <defs
     id="defs1" />
  <g
     id="layer1">
    <path
       d="m 5.1267012,21.081833 c 0.07524,0.80971 0.3058568,1.61107 0.6945241,2.360159 1.1034234,2.126653 3.2877901,3.454821 5.6835627,3.454821 h 8.990607 c 2.29166,0 4.398378,-1.218332 5.544208,-3.20307 1.14583,-1.984741 1.14583,-4.417658 0,-6.402399 -1.14583,-1.984738 -3.252548,-3.203072 -5.544208,-3.203072 H 11.504788 C 10.095681,14.08842 8.9532208,12.946235 8.9529539,11.537054 8.9528059,10.12758 10.095387,8.984937 11.504788,8.9850848 h 8.990607 c 0.119133,0 0.234301,0.022604 0.352881,0.026229 2.177659,0.067551 4.261136,0.7311252 6.024457,1.9053602 C 26.792954,10.059632 26.53978,9.2137936 26.11078,8.4306355 24.984848,6.3752056 22.838911,5.1031868 20.495395,5.1031868 h -8.990607 c -2.2916605,0 -4.399126,1.2153353 -5.5449566,3.200075 -1.1458304,1.9847392 -1.1458304,4.4206552 0,6.4053952 1.1457669,1.984629 3.2526958,3.199939 5.5442076,3.200074 h 7.49e-4 8.990607 c 1.408816,2.66e-4 2.550821,1.14233 2.551087,2.551219 -2.67e-4,1.40889 -1.142271,2.550953 -2.551087,2.551218 h -8.990607 c -0.121162,0 -0.238279,-0.0232 -0.358876,-0.02696 C 8.9704658,22.915665 6.8883798,22.25424 5.1267012,21.081841 Z"
       style="baseline-shift:baseline;display:inline;overflow:visible;opacity:1;vector-effect:none;fill:#ffffff;stroke-width:1.44986;stroke-linecap:round;enable-background:accumulate;stop-color:#000000;stop-opacity:1"
       id="path12" />
    <path
       d="M 11.504788,0 C 7.3981351,0 3.5935244,2.1946418 1.540198,5.7512939 -0.27674826,8.8985012 -0.48625651,12.702727 0.91235389,16.001124 -0.40852153,19.119457 -0.30543931,22.716114 1.2907087,25.79241 3.2670612,29.601483 7.2136942,32 11.504788,32 h 8.990607 c 4.106654,0 7.911265,-2.197638 9.964592,-5.75429 1.817136,-3.147538 2.026189,-6.950206 0.627094,-10.248331 C 32.446893,12.790057 32.293071,9.0921716 30.587354,5.9783186 28.570172,2.2958741 24.693967,0 20.495395,0 Z m 0,5.1031868 h 8.990607 c 2.343516,0 4.489453,1.2720188 5.615385,3.3274487 0.429,0.7831581 0.682174,1.6289965 0.761953,2.4860345 -1.763321,-1.1742357 -3.846798,-1.8378172 -6.024457,-1.9053608 -0.11858,-0.00362 -0.233755,-0.026229 -0.352881,-0.026229 h -8.990607 a 2.551567,2.5517008 0 0 0 -2.5518341,2.5519688 2.551567,2.5517008 0 0 0 2.5518341,2.551218 h 8.990607 c 2.29166,0 4.398378,1.218334 5.544208,3.203073 1.14583,1.984741 1.14583,4.417657 0,6.402397 -1.14583,1.98474 -3.252548,3.203071 -5.544208,3.203071 h -8.990607 c -2.3957726,0 -4.5801393,-1.328168 -5.6835627,-3.454821 -0.3886673,-0.749089 -0.6192841,-1.550449 -0.6945241,-2.360159 1.7616786,1.172398 3.8437646,1.833824 6.0192108,1.902363 0.120597,0.0038 0.237716,0.02696 0.358876,0.02696 h 8.990607 a 2.551567,2.5517008 0 0 0 2.551087,-2.551218 2.551567,2.5517008 0 0 0 -2.551087,-2.55122 h -8.990607 a 2.551567,2.5517008 0 0 0 -7.49e-4,0 c -2.2915118,-1.3e-4 -4.3984407,-1.215441 -5.5442076,-3.200069 -1.1458304,-1.98474 -1.1458304,-4.420656 0,-6.4053951 C 7.105662,6.3185134 9.2131275,5.103178 11.504788,5.103178 Z"
       style="baseline-shift:baseline;display:inline;overflow:visible;opacity:1;vector-effect:none;stroke-width:1.44986;enable-background:accumulate;stop-color:#000000;stop-opacity:1"
       id="path11" />
  </g>
</svg>
